<?xml version="1.0" standalone="no"?>
<!DOCTYPE svg PUBLIC "-//W3C//DTD SVG 20010904//EN"
 "http://www.w3.org/TR/2001/REC-SVG-20010904/DTD/svg10.dtd">
<svg version="1.0" xmlns="http://www.w3.org/2000/svg"
 width="1000.000000pt" height="435.000000pt" viewBox="0 0 1000.000000 435.000000"
 preserveAspectRatio="xMidYMid meet">

<g transform="translate(0.000000,435.000000) scale(0.100000,-0.100000)"
fill="#000000" stroke="none">
<path d="M0 2175 l0 -2175 5000 0 5000 0 0 2175 0 2175 -5000 0 -5000 0 0
-2175z m1760 1285 c0 -25 -4 -30 -25 -30 l-25 0 0 -120 0 -120 25 0 c25 0 25
-1 25 -80 l0 -80 85 0 85 0 0 80 c0 64 3 80 15 80 13 0 15 20 15 120 l0 120
-30 0 c-27 0 -30 3 -30 30 l0 30 85 0 85 0 0 -30 c0 -25 -4 -30 -25 -30 l-25
0 0 -120 c0 -100 3 -120 15 -120 13 0 15 -28 15 -195 l0 -195 50 0 50 0 2
-292 3 -293 305 0 305 0 3 298 2 297 35 0 35 0 0 80 0 80 -35 0 c-19 0 -35 3
-35 7 0 4 25 31 56 59 56 52 56 52 53 105 l-3 54 32 3 c30 3 32 1 32 -30 l0
-32 68 67 68 68 179 -148 179 -148 -72 -3 -72 -3 0 -219 0 -220 60 0 60 0 0
-160 0 -160 65 0 65 0 0 150 0 150 75 0 75 0 0 150 0 150 140 0 140 0 0 75 0
75 -65 0 -65 0 0 35 0 35 65 0 65 0 0 79 c0 70 2 79 20 84 19 5 20 14 20 121
l0 116 -28 0 c-36 0 -40 5 -34 35 4 24 7 25 88 25 l84 0 0 -30 c0 -27 -3 -30
-30 -30 l-31 0 3 -117 c3 -114 4 -118 26 -121 21 -3 22 -8 22 -83 l0 -79 80 0
80 0 0 79 c0 75 1 80 23 83 21 3 22 7 25 121 l3 117 -31 0 c-27 0 -30 3 -30
30 l0 30 85 0 85 0 0 -29 c0 -25 -4 -30 -27 -33 l-28 -3 2 -115 c2 -107 4
-115 23 -118 18 -3 20 -11 20 -83 l0 -79 65 0 65 0 0 -35 0 -35 -65 0 -65 0 0
-75 0 -75 150 0 150 0 0 -175 0 -175 85 0 85 0 0 -135 0 -135 70 0 70 0 0 160
0 160 130 0 130 0 0 140 0 140 -90 0 c-49 0 -90 3 -90 6 0 3 38 49 85 103 l85
99 0 216 0 216 -30 0 c-27 0 -30 3 -30 30 l0 30 85 0 85 0 0 -30 c0 -25 -4
-30 -25 -30 l-25 0 0 -195 0 -195 145 0 145 0 0 85 0 85 40 0 40 0 0 109 0
110 -27 3 c-22 2 -29 9 -31 31 l-3 28 88 -3 c86 -3 88 -3 88 -28 0 -20 -6 -26
-27 -28 l-28 -3 0 -110 0 -109 45 0 45 0 0 -60 0 -60 139 0 139 0 7 133 c9
176 7 191 -27 195 -22 3 -28 9 -28 28 0 24 2 24 85 24 84 0 85 0 85 -25 0 -20
-5 -25 -25 -25 l-25 0 0 -105 0 -105 25 0 c25 0 25 -1 25 -85 l0 -85 165 0
165 0 0 -35 c0 -33 -2 -35 -35 -35 l-35 0 0 -105 0 -105 95 0 95 0 0 -125 0
-125 55 0 55 0 0 150 0 150 160 0 160 0 0 96 0 95 -57 -1 c-32 -1 -64 -1 -71
-1 -7 1 29 36 80 78 51 42 130 107 175 145 l82 68 73 -60 c52 -43 74 -56 76
-45 2 9 15 15 33 15 27 0 29 -2 29 -42 0 -41 3 -46 71 -100 39 -32 67 -58 63
-59 -5 0 -37 0 -71 1 l-63 1 0 -96 0 -95 223 2 222 3 3 108 3 107 114 0 115 0
0 90 0 90 30 0 30 0 0 110 0 110 -30 0 c-27 0 -30 3 -30 30 l0 30 85 0 85 0 0
-30 c0 -25 -4 -30 -25 -30 l-25 0 0 -110 0 -110 25 0 c25 0 25 -1 25 -90 l0
-90 85 0 85 0 0 -35 0 -35 -85 0 -85 0 0 -75 0 -75 85 0 85 0 0 -135 0 -135
-605 0 -605 0 0 -175 0 -175 550 0 550 0 0 -235 0 -235 -545 0 -545 0 0 -170
0 -170 600 0 600 0 0 -285 0 -285 -905 0 -905 0 0 136 0 136 -77 -72 c-99 -92
-215 -150 -360 -180 -129 -26 -461 -28 -618 -5 -182 28 -315 74 -377 133 l-28
26 0 -77 0 -77 -307 2 -308 3 -70 162 -70 163 -357 0 -356 0 -30 -77 c-16 -43
-47 -122 -67 -175 l-38 -98 -458 0 -459 0 0 420 0 420 -310 0 -310 0 0 -420 0
-420 -375 0 -375 0 0 988 c0 550 4 993 9 1001 7 10 27 13 85 9 l76 -5 0 79 0
78 -79 0 c-85 0 -97 6 -87 46 6 23 10 24 86 24 l80 0 0 80 0 80 30 0 30 0 0
120 0 120 -30 0 c-27 0 -30 3 -30 30 l0 30 85 0 85 0 0 -30z"/>
<path d="M2920 2878 l0 -98 95 0 95 0 0 100 0 100 -95 -3 -95 -2 0 -97z"/>
<path d="M5820 2885 l0 -95 100 0 100 0 0 95 0 95 -100 0 -100 0 0 -95z"/>
<path d="M7383 2973 l-73 -4 0 -94 0 -95 95 0 95 0 0 100 c0 98 -1 100 -22 98
-13 -1 -56 -4 -95 -5z"/>
<path d="M6250 2875 l0 -95 100 0 100 0 0 95 0 95 -100 0 -100 0 0 -95z"/>
<path d="M1760 2885 l0 -75 85 0 85 0 0 75 0 75 -85 0 -85 0 0 -75z"/>
<path d="M8079 2955 c0 -3 0 -30 0 -60 0 -30 0 -62 0 -70 1 -12 17 -15 81 -15
l80 0 0 75 0 75 -80 0 c-44 0 -80 -2 -81 -5z"/>
<path d="M5350 2625 l0 -95 95 0 95 0 0 95 0 95 -95 0 -95 0 0 -95z"/>
<path d="M1760 2605 l0 -95 95 0 95 0 0 95 0 95 -95 0 -95 0 0 -95z"/>
<path d="M2880 2605 l0 -95 100 0 100 0 0 95 0 95 -100 0 -100 0 0 -95z"/>
<path d="M3790 2605 l0 -95 95 0 95 0 0 95 0 95 -95 0 -95 0 0 -95z"/>
<path d="M6930 2605 l0 -95 95 0 95 0 0 95 0 95 -95 0 -95 0 0 -95z"/>
<path d="M5889 2556 c-122 -43 -211 -150 -268 -323 -38 -114 -50 -196 -47
-313 4 -127 27 -215 86 -335 86 -175 206 -280 316 -278 128 3 261 124 324 294
l22 59 219 0 219 0 0 285 0 285 -222 2 -222 3 -33 85 c-56 143 -125 217 -225
240 -59 13 -126 12 -169 -4z"/>
<path d="M4155 2268 c-3 -7 -47 -150 -98 -318 -52 -168 -97 -315 -101 -327
l-7 -23 250 0 c146 0 251 4 251 9 0 5 -43 150 -96 323 -53 172 -99 321 -101
331 -4 13 -16 17 -49 17 -27 0 -46 -5 -49 -12z"/>
</g>
</svg>
